<svg width="55" height="54" viewBox="0 0 55 54" fill="none" xmlns="http://www.w3.org/2000/svg">
<path d="M8.72107 49.0782C10.6211 49.0782 12.1614 47.5379 12.1614 45.6378C12.1614 43.7378 10.6211 42.1974 8.72107 42.1974C6.82101 42.1974 5.2807 43.7378 5.2807 45.6378C5.2807 47.5379 6.82101 49.0782 8.72107 49.0782Z" fill="#FF5D5D"/>
<path d="M29.5485 36.7153V38.9473C29.5485 39.593 29.025 40.1165 28.3793 40.1165H26.0409C25.3952 40.1165 24.8718 39.593 24.8718 38.9473V36.7153H29.5485Z" fill="#D8D8E4"/>
<path d="M35.7133 22.2599H18.7071C17.0634 22.2599 15.731 20.9275 15.731 19.2838C15.731 17.6402 17.0634 16.3077 18.7071 16.3077H35.7133C37.357 16.3077 38.6894 17.6402 38.6894 19.2838C38.6894 20.9275 37.357 22.2599 35.7133 22.2599Z" fill="#EFD805"/>
<path d="M35.7132 22.2599V28.2121C35.7132 32.9083 31.9063 36.7153 27.2101 36.7153C22.5139 36.7153 18.707 32.9083 18.707 28.2121V22.2599" fill="#EFD805"/>
<path d="M21.3642 6.52914C20.1902 6.52914 19.2385 7.48086 19.2385 8.65493V16.3077H23.49V8.65493C23.49 7.48086 22.5383 6.52914 21.3642 6.52914Z" fill="#D8D8E4"/>
<path d="M33.056 6.52914C31.8819 6.52914 30.9302 7.48086 30.9302 8.65493V16.3077H35.1818V8.65493C35.1818 7.48086 34.2301 6.52914 33.056 6.52914Z" fill="#D8D8E4"/>
<path d="M8.72136 41.1348C8.01082 41.1348 7.32589 41.2995 6.70846 41.6086C0.641159 33.0126 0.620113 21.2331 6.7598 12.6162C7.10035 12.1382 6.98896 11.4745 6.51087 11.1338C6.03278 10.7932 5.36911 10.9046 5.02845 11.3826C1.64176 16.1358 -0.0956374 21.7487 0.00406176 27.6145C0.0989779 33.1967 1.85168 38.492 5.08085 42.9873C3.79773 44.7474 3.94962 47.2348 5.53705 48.8225C6.415 49.7003 7.56813 50.1393 8.72136 50.1393C9.8746 50.1393 11.0277 49.7003 11.9057 48.8225C13.6615 47.0666 13.6615 44.2097 11.9057 42.4538C11.055 41.6032 9.92413 41.1348 8.72136 41.1348ZM10.4024 47.3192C9.47527 48.2462 7.96713 48.2462 7.04019 47.3192C6.11313 46.3922 6.11313 44.8838 7.04019 43.9569C7.48926 43.5078 8.08628 43.2604 8.72126 43.2604C9.35623 43.2604 9.95336 43.5078 10.4023 43.9569C11.3295 44.8839 11.3295 46.3923 10.4024 47.3192Z" fill="black"/>
<path d="M41.8781 47.5027C38.8395 49.6984 35.4237 51.1529 31.7255 51.8261C30.8686 51.9821 29.9947 51.7524 29.3279 51.1961C28.666 50.6438 28.2864 49.8324 28.2864 48.9701V41.1793H28.3792C29.6099 41.1793 30.6113 40.178 30.6113 38.9472V37.1527C34.2116 35.7784 36.776 32.2894 36.776 28.2121V23.1799C38.489 22.712 39.7521 21.143 39.7521 19.2838C39.7521 17.237 38.2212 15.542 36.2446 15.2809V8.65492C36.2446 6.89669 34.8142 5.46625 33.0559 5.46625C31.2977 5.46625 29.8672 6.89669 29.8672 8.65492V15.2448H24.5528V8.65492C24.5528 6.89669 23.1224 5.46625 21.3641 5.46625C19.6059 5.46625 18.1754 6.89669 18.1754 8.65492V15.2809C16.1988 15.542 14.6679 17.2369 14.6679 19.2838C14.6679 21.143 15.931 22.712 17.644 23.1799V28.2121C17.644 32.2894 20.2084 35.7784 23.8088 37.1527V38.9473C23.8088 40.1781 24.8101 41.1794 26.0408 41.1794H26.1606V48.9702C26.1606 50.4648 26.8187 51.871 27.9659 52.8284C28.8816 53.5924 30.0227 54 31.1949 54C31.4977 54 31.8026 53.9728 32.1061 53.9175C36.1187 53.1871 39.8254 51.6086 43.1229 49.2258C43.5987 48.8819 43.7057 48.2175 43.3619 47.7418C43.0185 47.266 42.3542 47.1589 41.8781 47.5027ZM31.9931 8.65492C31.9931 8.06884 32.4699 7.59203 33.056 7.59203C33.6421 7.59203 34.1189 8.06884 34.1189 8.65492V15.2448H31.9931V8.65492ZM20.3013 8.65492C20.3013 8.06884 20.7781 7.59203 21.3642 7.59203C21.9503 7.59203 22.4271 8.06884 22.4271 8.65492V15.2448H20.3013V8.65492ZM16.7938 19.2838C16.7938 18.2289 17.6521 17.3706 18.707 17.3706H35.7133C36.7682 17.3706 37.6265 18.2289 37.6265 19.2838C37.6265 20.3388 36.7682 21.197 35.7133 21.197H18.707C17.6521 21.197 16.7938 20.3388 16.7938 19.2838ZM19.7699 28.2121V23.3228H34.6504V28.2121C34.6504 32.3147 31.3127 35.6524 27.2101 35.6524C23.1076 35.6524 19.7699 32.3147 19.7699 28.2121ZM25.9347 38.9473V37.6929C26.3521 37.7488 26.7777 37.7781 27.2101 37.7781C27.6425 37.7781 28.0682 37.7488 28.4856 37.6929V38.9473C28.4856 39.0059 28.438 39.0536 28.3793 39.0536H27.2504C27.2415 39.0534 27.2327 39.0522 27.2237 39.0522C27.2148 39.0522 27.206 39.0534 27.1971 39.0536H26.0412C25.9823 39.0536 25.9347 39.0059 25.9347 38.9473Z" fill="black"/>
<path d="M44.9437 44.8901C44.9356 44.8984 44.9274 44.9069 44.9196 44.915C44.519 45.3442 44.5423 46.0167 44.9714 46.4173C45.1763 46.6085 45.4366 46.7031 45.6964 46.7031C45.9709 46.7031 46.2448 46.5974 46.4518 46.3882C46.46 46.3799 46.4681 46.3714 46.4759 46.3632C46.8765 45.934 46.8532 45.2615 46.4241 44.8609C46.0029 44.4677 45.3466 44.4829 44.9437 44.8901Z" fill="black"/>
<path d="M54.3478 25.1625C53.8743 18.6557 51.0697 12.5283 46.4509 7.90932C41.911 3.36918 35.8466 0.590145 29.3748 0.084315C22.9818 -0.415563 16.6192 1.31929 11.457 4.96883C10.9776 5.30768 10.8638 5.97103 11.2026 6.45029C11.5414 6.92955 12.2048 7.04359 12.6841 6.70464C22.5555 -0.273985 36.4258 0.889986 44.9477 9.41246C53.7545 18.2197 54.8194 31.8964 47.4796 41.9327C47.1331 42.4065 47.2363 43.0715 47.7102 43.4181C47.8994 43.5565 48.1191 43.6231 48.3369 43.6231C48.6643 43.6231 48.9874 43.4723 49.1957 43.1875C52.9868 38.0034 54.8167 31.602 54.3478 25.1625Z" fill="black"/>
<path d="M8.57819 9.86758C8.85167 9.86758 9.12526 9.76256 9.33316 9.55296L9.35048 9.53532C9.76374 9.11845 9.76065 8.44543 9.34379 8.03218C8.92682 7.61903 8.25379 7.6218 7.84054 8.03887L7.82322 8.05652C7.40996 8.47338 7.41305 9.14641 7.82991 9.55966C8.03718 9.76501 8.30768 9.86758 8.57819 9.86758Z" fill="black"/>
<path d="M27.413 32.7625L29.6132 28.8776C29.7997 28.5485 29.7971 28.1453 29.6067 27.8185C29.4162 27.4918 29.0665 27.2909 28.6883 27.2909H27.9288L29.3278 25.5238C29.6921 25.0635 29.6143 24.395 29.1541 24.0307C28.6938 23.6663 28.0253 23.7442 27.6609 24.2043L24.8983 27.6941C24.6453 28.0137 24.5974 28.4498 24.7749 28.8167C24.9524 29.1836 25.3241 29.4167 25.7317 29.4167H26.8647L25.5631 31.7149C25.2738 32.2257 25.4534 32.8743 25.964 33.1635C26.1296 33.2573 26.3094 33.3018 26.487 33.3018C26.8576 33.3017 27.2174 33.1077 27.413 32.7625Z" fill="black"/>
</svg>
